<svg width="80" height="19" viewBox="0 0 80 19" fill="none" xmlns="http://www.w3.org/2000/svg"><g filter="url(#filter0_d_228_147)"><path d="M8.89638 8.37176C11.3227 8.37176 11.8698 7.15187 11.8698 5.97983H3.56807C1.96244 5.97983 0 7.21167 0 9.56772C0 11.9238 1.99812 13.1556 3.56807 13.1556H8.32549C8.7715 13.1556 9.51485 13.5084 9.51485 14.3516C9.51485 15.1947 8.74771 15.5476 8.32549 15.5476H0C0 16.8811 1.16557 17.9395 2.61658 17.9395H8.32549C10.0619 17.9395 11.8936 16.6 11.8936 14.3516C11.8936 12.1032 10.1095 10.7637 8.32549 10.7637H3.56807C3.02691 10.7637 2.37871 10.3152 2.37871 9.56772C2.37871 8.82025 3.00312 8.37176 3.56807 8.37176H8.89638Z" fill="white"/><path d="M13.2018 2.63112C13.2018 0.502306 15.5806 0 15.5806 0V7.18775C15.5806 7.18775 16.9186 5.97983 19.1486 5.97983C21.902 5.89013 25.0954 8.25814 25.0954 11.9597V17.9395H22.7167V12.4022C22.7167 9.44215 20.5877 8.44352 19.1486 8.44352C18.1555 8.44352 15.5806 9.00562 15.5806 12.9045V17.9395H13.2018V2.63112Z" fill="white"/><path d="M26.4037 11.9597C26.4037 8.82025 28.9073 5.97983 32.3505 5.97983C35.7937 5.97983 38.2973 8.84416 38.2973 11.9597V17.9395C38.2973 17.9395 35.8858 17.7541 35.9185 15.3861C35.9265 14.812 35.9185 13.8014 35.9185 11.9597C35.9185 10.1179 34.4319 8.37176 32.3505 8.37176C30.2691 8.37176 28.7824 10.1179 28.7824 11.9597C28.7824 13.8014 30.2453 15.5476 32.3505 15.5476C34.1464 15.5476 34.9968 17.1501 35.0027 17.9395H32.3505C28.8835 17.9395 26.4037 15.0991 26.4037 11.9597Z" fill="white"/><path d="M51.4991 2.63112C51.4991 0.239193 49.1204 0 49.1204 0V11.9597C49.1204 14.1423 47.3364 15.5476 45.5523 15.5476C43.7683 15.5476 41.9843 14.1543 41.9843 11.9597C41.9843 10.335 43.2985 8.37176 45.5404 8.37176C47.7824 8.37176 47.9667 6.50007 47.9667 6.50007C47.9667 6.50007 47.0509 5.97983 45.3442 5.97983C42.3411 5.97983 39.6055 8.61095 39.6055 11.9597C39.6055 14.824 41.8713 17.9395 45.5523 17.9395C49.2334 17.9395 51.4991 14.836 51.4991 11.9597V2.63112Z" fill="white"/><path fill-rule="evenodd" clip-rule="evenodd" d="M61.6054 9.8244C61.9613 10.3083 62.3222 11.0286 62.3222 11.9597C62.3222 14.0825 60.5382 15.5476 58.7542 15.5476C56.9701 15.5476 55.1861 14.0705 55.1861 11.9597C55.1861 10.335 56.5003 8.37176 58.7423 8.37176C60.9842 8.37176 61.1924 6.51801 61.1924 6.51801C61.1924 6.51801 60.3182 5.97983 58.546 5.97983C56.1019 5.97983 52.8074 8.10267 52.8074 11.9597C52.8074 14.824 55.0731 17.9395 58.7542 17.9395C62.4352 17.9395 64.701 14.836 64.701 11.9597C64.701 10.058 63.8233 8.7119 63.1936 7.99069L61.6054 9.8244Z" fill="white"/><path d="M61.6054 9.8244L61.5606 9.78514L61.5293 9.82135L61.5576 9.85996L61.6054 9.8244ZM61.1924 6.51801L61.2515 6.52472L61.2557 6.48689L61.2234 6.46702L61.1924 6.51801ZM63.1936 7.99069L63.2382 7.95123L63.1933 7.89985L63.1486 7.95141L63.1936 7.99069ZM61.5576 9.85996C61.9082 10.3367 62.2628 11.0449 62.2628 11.9597H62.3817C62.3817 11.0123 62.0143 10.2798 61.6532 9.78886L61.5576 9.85996ZM62.2628 11.9597C62.2628 14.046 60.509 15.4878 58.7542 15.4878V15.6073C60.5675 15.6073 62.3817 14.119 62.3817 11.9597H62.2628ZM58.7542 15.4878C56.9995 15.4878 55.2456 14.0342 55.2456 11.9597H55.1266C55.1266 14.1069 56.9408 15.6073 58.7542 15.6073V15.4878ZM55.2456 11.9597C55.2456 10.3608 56.54 8.43156 58.7423 8.43156V8.31196C56.4607 8.31196 55.1266 10.3093 55.1266 11.9597H55.2456ZM58.7423 8.43156C59.8826 8.43156 60.513 7.95862 60.8562 7.47986C61.027 7.24177 61.1255 7.00393 61.1815 6.82566C61.2095 6.73644 61.227 6.66191 61.2373 6.60938C61.2425 6.58311 61.246 6.56231 61.2483 6.5479C61.2493 6.5407 61.2502 6.53509 61.2506 6.53118C61.2509 6.52923 61.2512 6.52663 61.2512 6.52663L61.2513 6.52534L61.2515 6.52472C61.2515 6.52472 61.2515 6.52472 61.1924 6.51801C61.1332 6.5113 61.1332 6.51125 61.1332 6.51125L61.1331 6.51208C61.1331 6.51208 61.1329 6.51392 61.1328 6.51548C61.1323 6.51859 61.1317 6.52339 61.1307 6.52976C61.1287 6.54251 61.1255 6.56153 61.1208 6.58596C61.111 6.6348 61.0946 6.70509 61.0681 6.78966C61.0149 6.95896 60.9214 7.18456 60.7598 7.40991C60.4385 7.85802 59.8439 8.31196 58.7423 8.31196V8.43156ZM61.1924 6.51801C61.2234 6.46702 61.2234 6.46702 61.2234 6.46702L61.2224 6.46641C61.2224 6.46641 61.2211 6.46562 61.2201 6.46503C61.2182 6.46387 61.2153 6.46221 61.2117 6.46009C61.2044 6.45587 61.1935 6.44979 61.1794 6.44215C61.151 6.42688 61.1087 6.4053 61.0528 6.37954C60.9409 6.32803 60.7737 6.25979 60.5511 6.19171C60.1056 6.05551 59.4382 5.92003 58.546 5.92003V6.03963C59.426 6.03963 60.0817 6.17324 60.5164 6.30613C60.7339 6.37259 60.896 6.4389 61.0034 6.48829C61.057 6.51299 61.097 6.53346 61.1232 6.54761C61.1365 6.55469 61.1462 6.56019 61.1525 6.56384C61.1557 6.56567 61.158 6.56703 61.1594 6.56791L61.1611 6.56884C61.1611 6.56884 61.1613 6.56901 61.1924 6.51801ZM58.546 5.92003C56.0756 5.92003 52.7479 8.0634 52.7479 11.9597H52.8669C52.8669 8.14193 56.1282 6.03963 58.546 6.03963V5.92003ZM52.7479 11.9597C52.7479 14.8515 55.0351 17.9993 58.7542 17.9993V17.8797C55.1112 17.8797 52.8669 14.7965 52.8669 11.9597H52.7479ZM58.7542 17.9993C62.4733 17.9993 64.7604 14.8635 64.7604 11.9597H64.6415C64.6415 14.8084 62.3972 17.8797 58.7542 17.8797V17.9993ZM64.7604 11.9597C64.7604 10.0385 63.8738 8.67895 63.2382 7.95123L63.1488 8.03014C63.773 8.74486 64.6415 10.0775 64.6415 11.9597H64.7604ZM63.1486 7.95141L61.5606 9.78514L61.6503 9.86368L63.2384 8.02996L63.1486 7.95141Z" fill="white"/><path fill-rule="evenodd" clip-rule="evenodd" d="M66.2621 4.43546L64.4728 6.50151L68.8637 17.8677L72.1225 9.42421L75.3933 17.8677L79.9366 6.05158C79.9366 6.05158 77.6055 5.41174 76.7789 7.51664L75.3814 11.1584L73.3773 5.96787H70.844L68.8459 11.1584L66.2621 4.43546Z" fill="white"/><path d="M66.2621 4.43546L66.3065 4.41822L66.278 4.34421L66.2262 4.40405L66.2621 4.43546ZM64.4728 6.50151L64.4369 6.47009L64.4181 6.49188L64.4285 6.51883L64.4728 6.50151ZM68.8637 17.8677L68.8193 17.8851L68.8637 17.9999L68.9081 17.8851L68.8637 17.8677ZM72.1225 9.42421L72.1669 9.40684L72.1224 9.2922L72.0782 9.4069L72.1225 9.42421ZM75.3933 17.8677L75.3489 17.8851L75.3934 18L75.4376 17.8849L75.3933 17.8677ZM79.9366 6.05158L79.981 6.06884L80 6.0194L79.9491 6.00543L79.9366 6.05158ZM75.3814 11.1584L75.337 11.1757L75.3815 11.2909L75.4257 11.1756L75.3814 11.1584ZM73.3773 5.96787L73.4217 5.95055L73.4099 5.92003H73.3773V5.96787ZM70.844 5.96787V5.92003H70.8114L70.7996 5.9506L70.844 5.96787ZM68.8459 11.1584L68.8015 11.1756L68.8459 11.291L68.8902 11.1756L68.8459 11.1584ZM66.2262 4.40405L64.4369 6.47009L64.5088 6.53293L66.2979 4.46688L66.2262 4.40405ZM64.4285 6.51883L68.8193 17.8851L68.9081 17.8504L64.5172 6.48418L64.4285 6.51883ZM68.9081 17.8851L72.1669 9.44151L72.0782 9.4069L68.8193 17.8504L68.9081 17.8851ZM72.0782 9.44157L75.3489 17.8851L75.4376 17.8504L72.1669 9.40684L72.0782 9.44157ZM75.4376 17.8849L79.981 6.06884L79.8922 6.03434L75.3489 17.8505L75.4376 17.8849ZM79.9366 6.05158C79.9491 6.00543 79.9491 6.00543 79.9491 6.00543L79.9485 6.00528L79.9471 6.0049C79.9459 6.00456 79.9441 6.00408 79.9417 6.00348C79.9371 6.00228 79.9302 6.00054 79.9214 5.9984C79.9035 5.99411 79.8776 5.98814 79.8443 5.98133C79.7778 5.96771 79.6822 5.95071 79.5649 5.93699C79.3306 5.90955 79.009 5.89509 78.6607 5.94746C77.9624 6.05246 77.1556 6.42684 76.7346 7.49907L76.8231 7.53421C77.2287 6.50154 78.0008 6.14341 78.6747 6.04209C79.0125 5.99131 79.3253 6.00525 79.554 6.03202C79.6682 6.04539 79.7611 6.06193 79.8253 6.07509C79.8574 6.08165 79.8824 6.08738 79.8991 6.09143C79.9075 6.09346 79.9139 6.09506 79.918 6.09615C79.9202 6.0967 79.9227 6.09738 79.9227 6.09738L79.9239 6.09767C79.9239 6.09767 79.9241 6.09774 79.9366 6.05158ZM76.7346 7.49907L75.337 11.1411L75.4257 11.1756L76.8231 7.53421L76.7346 7.49907ZM75.4257 11.141L73.4217 5.95055L73.3329 5.98519L75.337 11.1757L75.4257 11.141ZM73.3773 5.92003H70.844V6.01571H73.3773V5.92003ZM70.7996 5.9506L68.8015 11.1411L68.8902 11.1756L70.8883 5.98514L70.7996 5.9506ZM68.8902 11.1411L66.3065 4.41822L66.2177 4.45271L68.8015 11.1756L68.8902 11.1411Z" fill="white"/></g><defs><filter id="filter0_d_228_147" x="0" y="0" width="80" height="19" filterUnits="userSpaceOnUse" color-interpolation-filters="sRGB"><feFlood flood-opacity="0" result="BackgroundImageFix"/><feColorMatrix in="SourceAlpha" type="matrix" values="0 0 0 0 0 0 0 0 0 0 0 0 0 0 0 0 0 0 127 0" result="hardAlpha"/><feOffset dy="1"/><feComposite in2="hardAlpha" operator="out"/><feColorMatrix type="matrix" values="0 0 0 0 0 0 0 0 0 0 0 0 0 0 0 0 0 0 0.25 0"/><feBlend mode="normal" in2="BackgroundImageFix" result="effect1_dropShadow_228_147"/><feBlend mode="normal" in="SourceGraphic" in2="effect1_dropShadow_228_147" result="shape"/></filter></defs></svg>